<svg width="200" height="80" viewBox="0 0 200 80" fill="none" xmlns="http://www.w3.org/2000/svg">
<g clip-path="url(#clip0)">
<g clip-path="url(#clip1)">
<path d="M36.5938 50.5977C35.737 50.5977 35.0078 50.4154 34.4062 50.0508C33.8229 49.6862 33.349 49.2214 32.9844 48.6562C32.638 48.1094 32.3828 47.4896 32.2188 46.7969C32.0729 46.1042 32 45.4297 32 44.7734C32 44.2083 32.0729 43.6797 32.2188 43.1875C32.3828 42.6771 32.5286 42.3307 32.6562 42.1484C32.7474 42.0208 32.8659 41.8841 33.0117 41.7383C33.1576 41.5924 33.3672 41.4922 33.6406 41.4375C33.9323 41.3828 34.224 41.319 34.5156 41.2461C34.7708 41.1914 35.0169 41.1458 35.2539 41.1094C35.5091 41.0729 35.737 41.0365 35.9375 41C35.6641 41.3099 35.4362 41.6654 35.2539 42.0664C35.0716 42.4674 34.9349 42.8867 34.8438 43.3242C34.7526 43.7435 34.6888 44.1536 34.6523 44.5547C34.6159 44.9557 34.6159 45.3203 34.6523 45.6484C34.707 46.5599 34.9714 47.3073 35.4453 47.8906C35.9375 48.4557 36.4753 48.7383 37.0586 48.7383C37.5143 48.7383 37.9062 48.6016 38.2344 48.3281C38.5625 48.0729 38.8359 47.7357 39.0547 47.3164C39.2734 46.8971 39.4466 46.4141 39.5742 45.8672C39.7018 45.3203 39.793 44.7734 39.8477 44.2266C39.9023 43.6615 39.9388 43.1146 39.957 42.5859C39.9753 42.0391 39.9844 41.5651 39.9844 41.1641C39.9844 40.4896 39.9479 39.7513 39.875 38.9492C39.8203 38.1471 39.7474 37.3451 39.6562 36.543C39.5651 35.7409 39.4648 34.9844 39.3555 34.2734C39.2643 33.5443 39.1823 32.9336 39.1094 32.4414C38.3802 32.5508 37.7604 32.6875 37.25 32.8516C36.7396 33.0156 36.2656 33.1523 35.8281 33.2617C35.6276 33.2982 35.5 33.2617 35.4453 33.1523C35.1354 32.6419 34.9714 32.1862 34.9531 31.7852C34.9349 31.3841 34.9531 31.0833 35.0078 30.8828C35.026 30.7917 35.1263 30.7096 35.3086 30.6367C35.9648 30.418 36.8125 30.2083 37.8516 30.0078C38.8906 29.8073 40.0664 29.6797 41.3789 29.625C41.7435 29.625 42.0898 29.6341 42.418 29.6523C42.7096 29.6706 43.0104 29.707 43.3203 29.7617C43.6484 29.8164 43.9401 29.8984 44.1953 30.0078C44.3047 30.099 44.3867 30.2174 44.4414 30.3633C44.4961 30.4909 44.5417 30.6276 44.5781 30.7734C44.6146 30.9557 44.6328 31.138 44.6328 31.3203C44.6328 31.5208 44.6146 31.7214 44.5781 31.9219C44.5417 32.1042 44.4961 32.3047 44.4414 32.5234C44.3867 32.7422 44.3138 32.9609 44.2227 33.1797C44.1315 33.0703 44.0312 32.9701 43.9219 32.8789C43.8307 32.7695 43.694 32.6784 43.5117 32.6055C43.3294 32.5143 43.0924 32.4505 42.8008 32.4141C42.5091 32.3594 42.1172 32.3229 41.625 32.3047C41.7891 33.3255 41.9258 34.2188 42.0352 34.9844C42.1628 35.75 42.263 36.4974 42.3359 37.2266C42.4271 37.9557 42.4909 38.7214 42.5273 39.5234C42.582 40.3255 42.6094 41.2734 42.6094 42.3672C42.6094 43.862 42.4453 45.138 42.1172 46.1953C41.7891 47.2344 41.3424 48.082 40.7773 48.7383C40.2305 49.3945 39.5924 49.8685 38.8633 50.1602C38.1341 50.4518 37.3776 50.5977 36.5938 50.5977ZM53.1914 29.8984C53.8659 29.9167 54.5221 30.1536 55.1602 30.6094C55.8164 31.0651 56.3906 31.7031 56.8828 32.5234C57.375 33.3438 57.7578 34.3281 58.0312 35.4766C58.3229 36.625 58.4596 37.9102 58.4414 39.332C58.4049 40.918 58.2135 42.3854 57.8672 43.7344C57.5208 45.0833 57.0378 46.25 56.418 47.2344C55.8164 48.2188 55.0872 48.9844 54.2305 49.5312C53.3737 50.0781 52.4258 50.3424 51.3867 50.3242C50.4023 50.306 49.5 50.0872 48.6797 49.668C47.8776 49.2487 47.194 48.6198 46.6289 47.7812C46.0638 46.9427 45.6263 45.8854 45.3164 44.6094C45.0247 43.3333 44.8971 41.8294 44.9336 40.0977C44.9701 38.3659 45.2253 36.8529 45.6992 35.5586C46.1914 34.2461 46.7747 33.1523 47.4492 32.2773C48.1237 31.3841 48.8164 30.7096 49.5273 30.2539C50.2383 29.7799 50.8398 29.5156 51.332 29.4609C51.6419 29.6797 51.8607 29.8893 51.9883 30.0898C52.1341 30.0352 52.2982 29.9896 52.4805 29.9531C52.681 29.9167 52.918 29.8984 53.1914 29.8984ZM55.6523 39.4961C55.6706 38.5664 55.6068 37.6732 55.4609 36.8164C55.3151 35.9414 55.1146 35.1667 54.8594 34.4922C54.6224 33.8177 54.349 33.2799 54.0391 32.8789C53.7292 32.4596 53.4193 32.2409 53.1094 32.2227C52.8724 32.2409 52.6354 32.3138 52.3984 32.4414C52.1979 32.569 51.9792 32.7604 51.7422 33.0156C51.5052 33.2708 51.2865 33.6354 51.0859 34.1094C50.9036 33.8542 50.7852 33.5807 50.7305 33.2891C50.694 32.9974 50.694 32.7057 50.7305 32.4141C50.2383 32.7786 49.8099 33.2344 49.4453 33.7812C49.0807 34.3099 48.7799 34.9023 48.543 35.5586C48.306 36.1966 48.1237 36.8802 47.9961 37.6094C47.8685 38.3203 47.7956 39.0495 47.7773 39.7969C47.7409 41.2917 47.8138 42.5677 47.9961 43.625C48.1966 44.6823 48.4609 45.5573 48.7891 46.25C49.1354 46.9245 49.5365 47.4258 49.9922 47.7539C50.4479 48.0638 50.9401 48.2188 51.4688 48.2188C52.0885 48.237 52.6445 48.0182 53.1367 47.5625C53.6471 47.0885 54.0846 46.4505 54.4492 45.6484C54.8138 44.8464 55.0964 43.9167 55.2969 42.8594C55.5156 41.8021 55.6341 40.681 55.6523 39.4961ZM74.5195 49.3398C74.3372 49.5951 74.1276 49.7865 73.8906 49.9141C73.6536 50.0599 73.4258 50.1602 73.207 50.2148C72.9518 50.2878 72.6784 50.3151 72.3867 50.2969C72.2773 50.2969 72.1589 50.2695 72.0312 50.2148C71.9219 50.1784 71.8034 50.1237 71.6758 50.0508C71.5482 49.9961 71.4388 49.9049 71.3477 49.7773C71.0924 48.8659 70.8646 47.9818 70.6641 47.125C70.4635 46.2682 70.2904 45.5026 70.1445 44.8281C69.9622 44.0443 69.8073 43.306 69.6797 42.6133C69.1875 42.5951 68.4492 42.5951 67.4648 42.6133C66.4987 42.6133 65.4505 42.668 64.3203 42.7773C63.974 43.8711 63.7005 44.7917 63.5 45.5391C63.2995 46.2865 63.1536 46.9062 63.0625 47.3984C62.9714 47.8906 62.9349 48.2917 62.9531 48.6016C62.9714 48.9297 63.026 49.2122 63.1172 49.4492C62.862 49.7044 62.6068 49.8867 62.3516 49.9961C62.1146 50.1237 61.8958 50.2057 61.6953 50.2422C61.4583 50.2969 61.2305 50.3151 61.0117 50.2969C60.7201 50.2604 60.4831 50.2057 60.3008 50.1328C60.1185 50.0781 59.9818 49.9779 59.8906 49.832C59.8177 49.7044 59.7904 49.513 59.8086 49.2578C59.8451 49.0026 59.918 48.6654 60.0273 48.2461C60.1367 47.8815 60.3372 47.2344 60.6289 46.3047C60.9388 45.3568 61.2852 44.2812 61.668 43.0781C60.9753 43.1328 60.4375 43.0964 60.0547 42.9688C59.6901 42.8411 59.4349 42.4948 59.2891 41.9297C59.5807 41.8385 59.8906 41.7565 60.2188 41.6836C60.5651 41.5924 60.8932 41.5104 61.2031 41.4375C61.5495 41.3646 61.9049 41.3008 62.2695 41.2461C62.6523 40.043 63.0443 38.8581 63.4453 37.6914C63.8464 36.5247 64.2201 35.4766 64.5664 34.5469L66.1523 30.3086C66.1888 30.1992 66.3802 30.0807 66.7266 29.9531C67.0729 29.8255 67.4557 29.7253 67.875 29.6523C68.2943 29.5612 68.6953 29.5156 69.0781 29.5156C69.4609 29.5156 69.707 29.5977 69.8164 29.7617C69.8711 30.1445 69.944 30.6185 70.0352 31.1836C70.1445 31.7487 70.2448 32.2956 70.3359 32.8242C70.4453 33.444 70.5729 34.082 70.7188 34.7383C70.8828 35.6497 71.056 36.6615 71.2383 37.7734C71.4388 38.8854 71.6849 40.0703 71.9766 41.3281C72.2682 42.5859 72.6146 43.8893 73.0156 45.2383C73.4167 46.5872 73.918 47.9544 74.5195 49.3398ZM66.918 40.7812C67.5013 40.763 67.9844 40.7539 68.3672 40.7539C68.75 40.7539 69.0781 40.763 69.3516 40.7812L69.2695 40.3711C69.1602 39.6966 69.0417 38.9766 68.9141 38.2109C68.8047 37.4453 68.6862 36.6888 68.5586 35.9414C68.4492 35.194 68.3398 34.4831 68.2305 33.8086C68.1211 33.1341 68.0299 32.5417 67.957 32.0312C67.7747 32.5052 67.5651 33.0794 67.3281 33.7539C67.0911 34.4102 66.8359 35.1302 66.5625 35.9141C66.2891 36.6979 66.0065 37.5182 65.7148 38.375C65.4414 39.2318 65.168 40.0794 64.8945 40.918C65.2227 40.8815 65.5508 40.8542 65.8789 40.8359C66.207 40.8177 66.5534 40.7995 66.918 40.7812ZM83.4883 29.8984C84.1628 29.9167 84.819 30.1536 85.457 30.6094C86.1133 31.0651 86.6875 31.7031 87.1797 32.5234C87.6719 33.3438 88.0547 34.3281 88.3281 35.4766C88.6198 36.625 88.7565 37.9102 88.7383 39.332C88.7018 40.918 88.5104 42.3854 88.1641 43.7344C87.8177 45.0833 87.3346 46.25 86.7148 47.2344C86.1133 48.2188 85.3841 48.9844 84.5273 49.5312C83.6706 50.0781 82.7227 50.3424 81.6836 50.3242C80.6992 50.306 79.7969 50.0872 78.9766 49.668C78.1745 49.2487 77.4909 48.6198 76.9258 47.7812C76.3607 46.9427 75.9232 45.8854 75.6133 44.6094C75.3216 43.3333 75.194 41.8294 75.2305 40.0977C75.2669 38.3659 75.5221 36.8529 75.9961 35.5586C76.4883 34.2461 77.0716 33.1523 77.7461 32.2773C78.4206 31.3841 79.1133 30.7096 79.8242 30.2539C80.5352 29.7799 81.1367 29.5156 81.6289 29.4609C81.9388 29.6797 82.1576 29.8893 82.2852 30.0898C82.431 30.0352 82.5951 29.9896 82.7773 29.9531C82.9779 29.9167 83.2148 29.8984 83.4883 29.8984ZM85.9492 39.4961C85.9674 38.5664 85.9036 37.6732 85.7578 36.8164C85.612 35.9414 85.4115 35.1667 85.1562 34.4922C84.9193 33.8177 84.6458 33.2799 84.3359 32.8789C84.026 32.4596 83.7161 32.2409 83.4062 32.2227C83.1693 32.2409 82.9323 32.3138 82.6953 32.4414C82.4948 32.569 82.276 32.7604 82.0391 33.0156C81.8021 33.2708 81.5833 33.6354 81.3828 34.1094C81.2005 33.8542 81.082 33.5807 81.0273 33.2891C80.9909 32.9974 80.9909 32.7057 81.0273 32.4141C80.5352 32.7786 80.1068 33.2344 79.7422 33.7812C79.3776 34.3099 79.0768 34.9023 78.8398 35.5586C78.6029 36.1966 78.4206 36.8802 78.293 37.6094C78.1654 38.3203 78.0924 39.0495 78.0742 39.7969C78.0378 41.2917 78.1107 42.5677 78.293 43.625C78.4935 44.6823 78.7578 45.5573 79.0859 46.25C79.4323 46.9245 79.8333 47.4258 80.2891 47.7539C80.7448 48.0638 81.237 48.2188 81.7656 48.2188C82.3854 48.237 82.9414 48.0182 83.4336 47.5625C83.944 47.0885 84.3815 46.4505 84.7461 45.6484C85.1107 44.8464 85.3932 43.9167 85.5938 42.8594C85.8125 41.8021 85.931 40.681 85.9492 39.4961ZM91.3906 35.3125C91.1354 35.2396 90.8711 35.1302 90.5977 34.9844C90.3424 34.8203 90.1055 34.638 89.8867 34.4375C89.6862 34.2188 89.5312 33.9818 89.4219 33.7266C89.3125 33.4714 89.2852 33.1979 89.3398 32.9062C89.4492 32.3047 89.7956 31.7396 90.3789 31.2109C90.9622 30.6823 91.7461 30.263 92.7305 29.9531V29.8711C92.7487 29.6706 92.8763 29.4701 93.1133 29.2695C93.3685 29.0508 93.6784 28.9049 94.043 28.832C94.3893 28.7591 94.6354 28.7591 94.7812 28.832C94.9453 28.9049 95.0273 29.0052 95.0273 29.1328C95.0273 29.1693 95.0182 29.2148 95 29.2695C95 29.306 95 29.3424 95 29.3789V29.5156C95.8932 29.4427 96.8867 29.4701 97.9805 29.5977C99.293 29.7617 100.359 30.0716 101.18 30.5273C102 30.9831 102.62 31.5117 103.039 32.1133C103.458 32.6966 103.714 33.3073 103.805 33.9453C103.914 34.5833 103.914 35.1667 103.805 35.6953C103.695 36.3151 103.495 36.8802 103.203 37.3906C102.911 37.8828 102.565 38.3294 102.164 38.7305C101.763 39.1133 101.316 39.4505 100.824 39.7422C100.332 40.0339 99.8125 40.2799 99.2656 40.4805C99.849 40.6081 100.341 40.8177 100.742 41.1094C101.161 41.3828 101.499 41.7109 101.754 42.0938C102.009 42.4766 102.191 42.9049 102.301 43.3789C102.41 43.8529 102.447 44.3359 102.41 44.8281C102.374 45.5938 102.173 46.3138 101.809 46.9883C101.462 47.6445 100.988 48.2188 100.387 48.7109C99.7852 49.2031 99.0651 49.5859 98.2266 49.8594C97.4062 50.1328 96.4948 50.2513 95.4922 50.2148H95.1641C94.8906 50.4518 94.5898 50.625 94.2617 50.7344C93.9518 50.862 93.651 50.9531 93.3594 51.0078C93.0312 51.0807 92.7031 51.1081 92.375 51.0898C92.375 50.9622 92.375 50.8255 92.375 50.6797C92.3932 50.5521 92.4023 50.4245 92.4023 50.2969C92.4023 50.151 92.4115 50.0052 92.4297 49.8594C92.2109 49.8229 92.0013 49.7682 91.8008 49.6953C91.6185 49.6406 91.4271 49.5768 91.2266 49.5039C91.0443 49.4492 90.8802 49.3854 90.7344 49.3125C90.6615 49.2031 90.6068 49.0664 90.5703 48.9023C90.5339 48.7565 90.5065 48.5924 90.4883 48.4102C90.4883 48.2461 90.5247 48.0547 90.5977 47.8359C91.1628 48.0547 91.8099 48.2188 92.5391 48.3281C92.5755 47.3984 92.6029 46.2956 92.6211 45.0195C92.6576 43.7435 92.6758 42.4036 92.6758 41C92.6758 39.4141 92.6758 37.8555 92.6758 36.3242C92.694 34.793 92.7031 33.4805 92.7031 32.3867C92.1745 32.6602 91.7643 33.0339 91.4727 33.5078C91.181 33.9818 91.1536 34.5833 91.3906 35.3125ZM99.8125 44.9648C99.8854 44.1628 99.7669 43.5247 99.457 43.0508C99.1471 42.5586 98.737 42.194 98.2266 41.957C97.7344 41.7018 97.1875 41.5469 96.5859 41.4922C96.0026 41.4375 95.474 41.4284 95 41.4648C95.0365 42.9779 95.0638 44.3542 95.082 45.5938C95.1003 46.8151 95.1185 47.8177 95.1367 48.6016C95.7018 48.6198 96.2487 48.556 96.7773 48.4102C97.306 48.2643 97.7799 48.0365 98.1992 47.7266C98.6367 47.4167 99.0013 47.0339 99.293 46.5781C99.5846 46.1042 99.7578 45.5664 99.8125 44.9648ZM94.9453 31.7578C94.9089 32.6875 94.8906 33.7904 94.8906 35.0664C94.8906 36.3424 94.9089 37.7643 94.9453 39.332C94.9453 39.4779 94.9453 39.6237 94.9453 39.7695C94.9453 39.8971 94.9544 40.0339 94.9727 40.1797C95.6289 40.125 96.3125 39.9701 97.0234 39.7148C97.7344 39.4414 98.3815 39.0859 98.9648 38.6484C99.5664 38.2109 100.059 37.7005 100.441 37.1172C100.824 36.5156 101.016 35.8594 101.016 35.1484C101.016 34.6016 100.87 34.1185 100.578 33.6992C100.286 33.2617 99.8945 32.8971 99.4023 32.6055C98.9284 32.3138 98.3724 32.0951 97.7344 31.9492C97.1146 31.8034 96.4674 31.7305 95.793 31.7305C95.6471 31.7305 95.5013 31.7305 95.3555 31.7305C95.2279 31.7305 95.0911 31.7396 94.9453 31.7578ZM112.172 45.1836C111.99 44.6185 111.807 44.1172 111.625 43.6797C111.461 43.2422 111.315 42.8685 111.188 42.5586C110.477 42.7956 109.702 42.9596 108.863 43.0508C108.863 44.2174 108.891 45.2109 108.945 46.0312C108.964 46.5417 108.982 46.9792 109 47.3438C109.036 47.6901 109.064 47.9909 109.082 48.2461C109.118 48.5013 109.155 48.7292 109.191 48.9297C109.228 49.1484 109.283 49.3581 109.355 49.5586C108.991 49.832 108.635 50.0326 108.289 50.1602C107.961 50.2878 107.669 50.3789 107.414 50.4336C107.104 50.5065 106.831 50.5247 106.594 50.4883C106.503 50.2331 106.421 49.9596 106.348 49.668C106.275 49.3945 106.22 49.0117 106.184 48.5195C106.165 48.0456 106.156 47.4349 106.156 46.6875C106.156 45.9401 106.184 44.9831 106.238 43.8164C106.257 43.6888 106.266 43.5612 106.266 43.4336C106.266 43.306 106.275 43.1784 106.293 43.0508C106.129 43.0326 105.956 43.0143 105.773 42.9961C105.609 42.9779 105.445 42.9596 105.281 42.9414C105.172 42.6497 105.099 42.3945 105.062 42.1758C105.026 41.9388 105.008 41.7474 105.008 41.6016C105.008 41.4193 105.026 41.2734 105.062 41.1641C105.354 41.2188 105.646 41.2461 105.938 41.2461H106.348C106.384 40.4805 106.421 39.7057 106.457 38.9219C106.493 38.1198 106.521 37.3451 106.539 36.5977C106.576 35.832 106.603 35.112 106.621 34.4375C106.639 33.7448 106.658 33.1159 106.676 32.5508C106.129 32.9154 105.655 33.3893 105.254 33.9727C104.853 34.556 104.579 35.2305 104.434 35.9961C104.197 35.9596 103.996 35.8503 103.832 35.668C103.668 35.4674 103.531 35.2669 103.422 35.0664C103.294 34.8294 103.185 34.5651 103.094 34.2734C103.003 33.9271 103.003 33.5807 103.094 33.2344C103.185 32.8698 103.322 32.5326 103.504 32.2227C103.686 31.8945 103.896 31.612 104.133 31.375C104.37 31.1198 104.598 30.9193 104.816 30.7734C105.199 30.5365 105.591 30.3268 105.992 30.1445C106.411 29.944 106.876 29.7799 107.387 29.6523C107.587 29.4518 107.806 29.2695 108.043 29.1055C108.298 28.9414 108.535 28.8411 108.754 28.8047C109.064 28.7318 109.237 28.9232 109.273 29.3789C109.438 29.3607 109.611 29.3516 109.793 29.3516C109.975 29.3333 110.167 29.3242 110.367 29.3242C111.06 29.3242 111.78 29.4336 112.527 29.6523C113.275 29.8711 113.958 30.2266 114.578 30.7188C115.216 31.1927 115.736 31.8216 116.137 32.6055C116.538 33.3711 116.738 34.3099 116.738 35.4219C116.738 36.6797 116.438 37.8372 115.836 38.8945C115.253 39.9518 114.414 40.8268 113.32 41.5195C113.448 41.8477 113.612 42.2578 113.812 42.75C114.013 43.2422 114.214 43.7982 114.414 44.418C114.706 45.1836 115.016 45.9036 115.344 46.5781C115.69 47.2344 116.046 47.8086 116.41 48.3008C116.775 48.793 117.158 49.1849 117.559 49.4766C117.96 49.7865 118.361 49.9688 118.762 50.0234C118.525 50.388 118.251 50.6432 117.941 50.7891C117.632 50.9349 117.322 51.026 117.012 51.0625C116.665 51.1172 116.301 51.1172 115.918 51.0625C115.389 50.9531 114.934 50.6979 114.551 50.2969C114.168 49.8958 113.831 49.4128 113.539 48.8477C113.266 48.2826 113.01 47.681 112.773 47.043C112.555 46.3867 112.354 45.7669 112.172 45.1836ZM109 33.5352C109 33.9362 108.991 34.4193 108.973 34.9844C108.954 35.5495 108.936 36.1602 108.918 36.8164C108.918 37.4727 108.909 38.1654 108.891 38.8945C108.872 39.6055 108.863 40.3164 108.863 41.0273C109.355 40.9544 109.893 40.8359 110.477 40.6719C111.078 40.5078 111.634 40.2344 112.145 39.8516C112.655 39.4688 113.083 38.9583 113.43 38.3203C113.776 37.6823 113.949 36.862 113.949 35.8594C113.949 35.0938 113.812 34.4466 113.539 33.918C113.284 33.3711 112.947 32.9336 112.527 32.6055C112.108 32.2591 111.643 32.013 111.133 31.8672C110.641 31.7031 110.148 31.6211 109.656 31.6211C109.565 31.6211 109.474 31.6211 109.383 31.6211C109.292 31.6211 109.191 31.6302 109.082 31.6484C109.027 32.2318 109 32.8607 109 33.5352ZM128.496 48.3008C128.496 48.5195 128.505 48.7292 128.523 48.9297C128.523 49.112 128.523 49.3125 128.523 49.5312C128.542 49.75 128.533 49.9688 128.496 50.1875C128.241 49.987 127.931 49.8229 127.566 49.6953C127.22 49.5859 126.701 49.513 126.008 49.4766C124.914 49.4219 123.82 49.4948 122.727 49.6953C121.651 49.8958 120.667 50.1328 119.773 50.4062C119.591 50.4609 119.409 50.4336 119.227 50.3242C119.044 50.2331 118.862 50.0781 118.68 49.8594C118.516 49.6589 118.361 49.4219 118.215 49.1484C118.087 48.875 117.987 48.5924 117.914 48.3008C117.841 48.0091 117.796 47.681 117.777 47.3164C117.759 46.9518 117.786 46.569 117.859 46.168C117.951 45.7487 118.115 45.3203 118.352 44.8828C118.589 44.4453 118.926 44.0078 119.363 43.5703C119.764 43.1875 120.329 42.75 121.059 42.2578C121.806 41.7474 122.544 41.1732 123.273 40.5352C124.021 39.8971 124.668 39.1862 125.215 38.4023C125.762 37.6185 126.053 36.7435 126.09 35.7773C126.163 34.3919 125.98 33.362 125.543 32.6875C125.105 31.9948 124.54 31.6211 123.848 31.5664C122.918 31.4935 122.152 31.8398 121.551 32.6055C120.967 33.3711 120.503 34.5104 120.156 36.0234C120.065 36.0781 119.928 36.0781 119.746 36.0234C119.564 35.9688 119.391 35.8958 119.227 35.8047C119.026 35.7135 118.816 35.5859 118.598 35.4219C118.397 35.276 118.224 35.0846 118.078 34.8477C117.951 34.5924 117.896 34.3372 117.914 34.082C117.932 33.7539 118.069 33.3164 118.324 32.7695C118.579 32.2227 118.962 31.7031 119.473 31.2109C120.001 30.7005 120.658 30.2812 121.441 29.9531C122.243 29.6068 123.201 29.4792 124.312 29.5703C124.932 29.625 125.516 29.8073 126.062 30.1172C126.609 30.4089 127.083 30.8281 127.484 31.375C127.885 31.9219 128.195 32.5872 128.414 33.3711C128.633 34.1367 128.715 35.0208 128.66 36.0234C128.605 37.0807 128.332 38.0286 127.84 38.8672C127.366 39.6875 126.819 40.4076 126.199 41.0273C125.598 41.6471 124.996 42.1667 124.395 42.5859C123.793 43.0052 123.337 43.3333 123.027 43.5703C122.645 43.862 122.28 44.1445 121.934 44.418C121.587 44.6732 121.296 44.9648 121.059 45.293C120.84 45.6029 120.694 45.9492 120.621 46.332C120.548 46.7148 120.585 47.1615 120.73 47.6719C121.168 47.5078 121.742 47.3346 122.453 47.1523C123.182 46.9518 123.993 46.8151 124.887 46.7422C125.543 46.7057 126.09 46.6966 126.527 46.7148C126.965 46.7148 127.32 46.7695 127.594 46.8789C127.867 46.9701 128.068 47.1341 128.195 47.3711C128.341 47.5898 128.441 47.8997 128.496 48.3008ZM137.574 29.9805C138.194 29.9805 138.796 30.2083 139.379 30.6641C139.962 31.1016 140.473 31.7305 140.91 32.5508C141.366 33.3711 141.721 34.3555 141.977 35.5039C142.25 36.6523 142.378 37.9375 142.359 39.3594C142.323 40.9453 142.141 42.4219 141.812 43.7891C141.503 45.138 141.065 46.3047 140.5 47.2891C139.953 48.2552 139.297 49.0117 138.531 49.5586C137.766 50.1055 136.909 50.3698 135.961 50.3516C135.049 50.3333 134.22 50.1146 133.473 49.6953C132.743 49.276 132.115 48.6562 131.586 47.8359C131.076 46.9974 130.684 45.9401 130.41 44.6641C130.137 43.388 130.018 41.875 130.055 40.125C130.091 38.3932 130.328 36.8802 130.766 35.5859C131.203 34.2734 131.723 33.1797 132.324 32.3047C132.944 31.4115 133.573 30.737 134.211 30.2812C134.867 29.8073 135.423 29.543 135.879 29.4883C136.152 29.6706 136.344 29.8802 136.453 30.1172C136.581 30.0807 136.736 30.0443 136.918 30.0078C137.1 29.9714 137.319 29.9622 137.574 29.9805ZM139.707 39.5234C139.725 38.612 139.671 37.737 139.543 36.8984C139.415 36.0417 139.242 35.2852 139.023 34.6289C138.805 33.9544 138.559 33.4167 138.285 33.0156C138.012 32.6146 137.738 32.4141 137.465 32.4141C137.246 32.4323 137.036 32.5052 136.836 32.6328C136.654 32.7422 136.453 32.9245 136.234 33.1797C136.034 33.4349 135.842 33.7904 135.66 34.2461C135.514 34.0091 135.414 33.7539 135.359 33.4805C135.305 33.1888 135.296 32.8971 135.332 32.6055C134.895 32.9701 134.521 33.4167 134.211 33.9453C133.901 34.474 133.637 35.0573 133.418 35.6953C133.217 36.3151 133.062 36.9805 132.953 37.6914C132.844 38.4023 132.78 39.1133 132.762 39.8242C132.725 41.2826 132.789 42.5312 132.953 43.5703C133.117 44.6094 133.345 45.4661 133.637 46.1406C133.947 46.7969 134.302 47.2891 134.703 47.6172C135.122 47.9271 135.569 48.082 136.043 48.082C136.59 48.1003 137.082 47.8815 137.52 47.4258C137.957 46.9701 138.331 46.3503 138.641 45.5664C138.969 44.7826 139.224 43.8711 139.406 42.832C139.589 41.793 139.689 40.6901 139.707 39.5234ZM151.301 29.9805C151.921 29.9805 152.522 30.2083 153.105 30.6641C153.689 31.1016 154.199 31.7305 154.637 32.5508C155.092 33.3711 155.448 34.3555 155.703 35.5039C155.977 36.6523 156.104 37.9375 156.086 39.3594C156.049 40.9453 155.867 42.4219 155.539 43.7891C155.229 45.138 154.792 46.3047 154.227 47.2891C153.68 48.2552 153.023 49.0117 152.258 49.5586C151.492 50.1055 150.635 50.3698 149.688 50.3516C148.776 50.3333 147.947 50.1146 147.199 49.6953C146.47 49.276 145.841 48.6562 145.312 47.8359C144.802 46.9974 144.41 45.9401 144.137 44.6641C143.863 43.388 143.745 41.875 143.781 40.125C143.818 38.3932 144.055 36.8802 144.492 35.5859C144.93 34.2734 145.449 33.1797 146.051 32.3047C146.671 31.4115 147.299 30.737 147.938 30.2812C148.594 29.8073 149.15 29.543 149.605 29.4883C149.879 29.6706 150.07 29.8802 150.18 30.1172C150.307 30.0807 150.462 30.0443 150.645 30.0078C150.827 29.9714 151.046 29.9622 151.301 29.9805ZM153.434 39.5234C153.452 38.612 153.397 37.737 153.27 36.8984C153.142 36.0417 152.969 35.2852 152.75 34.6289C152.531 33.9544 152.285 33.4167 152.012 33.0156C151.738 32.6146 151.465 32.4141 151.191 32.4141C150.973 32.4323 150.763 32.5052 150.562 32.6328C150.38 32.7422 150.18 32.9245 149.961 33.1797C149.76 33.4349 149.569 33.7904 149.387 34.2461C149.241 34.0091 149.141 33.7539 149.086 33.4805C149.031 33.1888 149.022 32.8971 149.059 32.6055C148.621 32.9701 148.247 33.4167 147.938 33.9453C147.628 34.474 147.363 35.0573 147.145 35.6953C146.944 36.3151 146.789 36.9805 146.68 37.6914C146.57 38.4023 146.507 39.1133 146.488 39.8242C146.452 41.2826 146.516 42.5312 146.68 43.5703C146.844 44.6094 147.072 45.4661 147.363 46.1406C147.673 46.7969 148.029 47.2891 148.43 47.6172C148.849 47.9271 149.296 48.082 149.77 48.082C150.316 48.1003 150.809 47.8815 151.246 47.4258C151.684 46.9701 152.057 46.3503 152.367 45.5664C152.695 44.7826 152.951 43.8711 153.133 42.832C153.315 41.793 153.415 40.6901 153.434 39.5234Z" fill="black"/>
<g clip-path="url(#clip2)">
<path d="M178.555 20.7273L173.885 25.3904L189.016 40.5L173.885 55.6096L178.555 60.2727L198.355 40.5L178.555 20.7273Z" fill="black"/>
</g>
<g clip-path="url(#clip3)">
<path d="M24.1146 25.3904L19.4452 20.7273L-0.354828 40.5L19.4452 60.2727L24.1146 55.6096L8.98412 40.5L24.1146 25.3904Z" fill="black"/>
</g>
<line y1="-0.5" x2="74.8819" y2="-0.5" transform="matrix(-0.191541 0.981485 -0.981583 -0.191034 172.743 0.954544)" stroke="black"/>
</g>
</g>
<defs>
<clipPath id="clip0">
<rect width="200" height="80" fill="white"/>
</clipPath>
<clipPath id="clip1">
<rect width="198" height="87" fill="white" transform="translate(0 -3)"/>
</clipPath>
<clipPath id="clip2">
<rect width="39.6" height="39.5455" fill="white" transform="translate(166.32 20.7273)"/>
</clipPath>
<clipPath id="clip3">
<rect width="39.6" height="39.5455" fill="white" transform="translate(-7.92 20.7273)"/>
</clipPath>
</defs>
</svg>
